<?xml version="1.0" encoding="UTF-8" standalone="no"?>
<!-- Created with Inkscape (http://www.inkscape.org/) -->

<svg
   xmlns:dc="http://purl.org/dc/elements/1.1/"
   xmlns:cc="http://creativecommons.org/ns#"
   xmlns:rdf="http://www.w3.org/1999/02/22-rdf-syntax-ns#"
   xmlns:svg="http://www.w3.org/2000/svg"
   xmlns="http://www.w3.org/2000/svg"
   xmlns:sodipodi="http://sodipodi.sourceforge.net/DTD/sodipodi-0.dtd"
   xmlns:inkscape="http://www.inkscape.org/namespaces/inkscape"
   width="26.554281mm"
   height="14.170363mm"
   viewBox="0 0 94.089981 50.209948"
   id="svg2"
   version="1.1"
   inkscape:version="0.91 r13725"
   sodipodi:docname="brewlabs-on_light_background.svg"
   inkscape:export-filename="/home/laurent/Images/artwork/Brewlabs/brewlabs-03.svg.png"
   inkscape:export-xdpi="90"
   inkscape:export-ydpi="90">
  <defs
     id="defs4" />
  <sodipodi:namedview
     id="base"
     pagecolor="#ffffff"
     bordercolor="#666666"
     borderopacity="1.0"
     inkscape:pageopacity="0.0"
     inkscape:pageshadow="2"
     inkscape:zoom="1.4"
     inkscape:cx="132.5555"
     inkscape:cy="-37.086665"
     inkscape:document-units="px"
     inkscape:current-layer="layer1"
     showgrid="false"
     fit-margin-top="1"
     fit-margin-left="1"
     fit-margin-right="1"
     fit-margin-bottom="1"
     inkscape:window-width="1920"
     inkscape:window-height="1176"
     inkscape:window-x="0"
     inkscape:window-y="24"
     inkscape:window-maximized="1" />
  <metadata
     id="metadata7">
    <rdf:RDF>
      <cc:Work
         rdf:about="">
        <dc:format>image/svg+xml</dc:format>
        <dc:type
           rdf:resource="http://purl.org/dc/dcmitype/StillImage" />
        <dc:title></dc:title>
      </cc:Work>
    </rdf:RDF>
  </metadata>
  <g
     inkscape:label="Calque 1"
     inkscape:groupmode="layer"
     id="layer1"
     transform="translate(-402.49758,214.04536)">
    <flowRoot
       xml:space="preserve"
       id="flowRoot4228"
       style="font-style:normal;font-weight:normal;font-size:40px;line-height:125%;font-family:sans-serif;letter-spacing:0px;word-spacing:0px;fill:#000000;fill-opacity:1;stroke:none;stroke-width:1px;stroke-linecap:butt;stroke-linejoin:miter;stroke-opacity:1"
       transform="translate(123.71561,-628.89353)"><flowRegion
         id="flowRegion4230"><rect
           id="rect4232"
           width="102.14286"
           height="51.42857"
           x="209.64285"
           y="271.95163" /></flowRegion><flowPara
         id="flowPara4234" /></flowRoot>    <g
       id="g4264"
       transform="translate(65.659883,71.215789)"
       inkscape:export-filename="/home/laurent/Images/artwork/Brewlabs/g4264.png"
       inkscape:export-xdpi="90"
       inkscape:export-ydpi="90">
      <g
         id="text4179-78"
         style="color:#000000;font-style:normal;font-variant:normal;font-weight:normal;font-stretch:normal;font-size:40px;line-height:125%;font-family:McKoy;-inkscape-font-specification:'McKoy, Normal';text-indent:0;text-align:start;text-decoration:none;text-decoration-line:none;text-decoration-style:solid;text-decoration-color:#000000;letter-spacing:0px;word-spacing:0px;text-transform:none;direction:ltr;block-progression:tb;writing-mode:lr-tb;baseline-shift:baseline;text-anchor:start;white-space:normal;clip-rule:nonzero;display:inline;overflow:visible;visibility:visible;opacity:1;isolation:auto;mix-blend-mode:normal;color-interpolation:sRGB;color-interpolation-filters:linearRGB;solid-color:#000000;solid-opacity:1;fill:#003c80;fill-opacity:1;fill-rule:nonzero;stroke:none;stroke-width:1px;stroke-linecap:butt;stroke-linejoin:miter;stroke-miterlimit:4;stroke-dasharray:none;stroke-dashoffset:0;stroke-opacity:1;color-rendering:auto;image-rendering:auto;shape-rendering:auto;text-rendering:auto;enable-background:accumulate">
        <path
           id="path4179"
           d="m 340.68515,-278.96143 q 0.42969,-0.9375 1.38672,-1.91406 1.26953,-1.28906 1.95312,-0.60547 0.56641,0.56641 1.48438,2.38282 0.99609,1.99218 1.54297,2.67578 0.54687,0.68359 1.48437,1.48437 1.25,1.07422 1.69922,0.83985 1.13281,-0.58594 2.16797,-0.58594 0.64453,0 1.23047,0.21484 3.94531,1.50391 5.85937,5.33203 1.5625,3.14453 1.5625,6.5625 0,1.875 -0.48828,3.73047 -0.72265,2.61719 -2.73437,4.62891 -1.91406,1.93359 -4.57031,2.89062 -0.72266,0.27344 -1.40625,0.27344 -1.89454,0 -3.63282,-1.93359 l -1.69922,0.42968 q -1.67968,0.42969 -1.89453,0.42969 -0.80078,0 -1.8164,-1.05469 -1.13282,-1.15234 -1.6211,-2.32421 -0.48828,-1.17188 -0.74218,-11.71875 -0.0977,-4.1211 -0.0586,-7.65625 0.0391,-3.53516 0.29297,-4.08204 z m 10.03906,23.125 q 2.32422,-0.41015 3.53516,-2.61718 1.19141,-2.14844 1.19141,-4.60938 -0.0195,-2.4414 -1.25,-4.47265 -1.28907,-2.08985 -3.73047,-2.2461 -1.42578,-0.0976 -2.5,1.25 -1.05469,1.34766 -1.44532,2.30469 -0.5664,1.38672 -0.5664,3.28125 0,4.16016 2.10937,6.26953 0.87891,0.89844 2.07032,0.89844 0.27343,0 0.58593,-0.0586 z"
           inkscape:connector-curvature="0" />
        <path
           id="path4181"
           d="m 370.19687,-273.49268 q 1.67969,-0.0976 2.85156,0.9961 0.83985,0.95703 0.78125,1.69922 -0.21484,2.5 -1.8164,3.94531 -3.08594,2.77344 -2.46094,8.88672 0.0391,0.52734 0.0391,0.97656 0,2.26563 -1.23047,3.4375 -0.70312,0.48828 -1.75781,0.54688 -1.07422,0.0781 -1.42578,-0.54688 -1.26953,-2.28516 -1.36719,-8.39844 -0.11719,-5.97656 0.85938,-9.04297 0.60546,-1.91406 3.51562,-2.34375 0.56641,-0.0586 2.01172,-0.15625 z"
           inkscape:connector-curvature="0" />
        <path
           id="path4183"
           d="m 392.32578,-255.73877 q 0.78125,0.46875 0.37109,1.34766 -0.66406,1.36718 -3.63281,2.77343 -1.99219,0.9375 -3.94532,0.74219 -2.46093,-0.2539 -4.70703,-1.83594 -2.10937,-1.48437 -3.45703,-3.73046 -1.75781,-2.8711 -1.75781,-6.23047 0,-2.48047 1.21094,-5.13672 1.54297,-3.39844 4.58984,-5.03906 2.71484,-1.44532 5.50781,-1.44532 3.59375,0 6.42578,2.32422 2.61719,2.14844 3.08594,6.17188 0.0391,0.35156 0.0391,0.68359 0,1.54297 -0.91796,2.24609 -1.07422,0.82032 -2.75391,0.83985 l -3.80859,0.0586 q -3.51563,0.0391 -4.62891,0.0391 -1.83594,0 -2.16797,1.36719 -0.0977,0.33203 -0.0977,0.6836 0,1.1914 0.91797,2.46093 1.07422,1.48438 2.69532,2.01172 0.85937,0.27344 1.66015,0.27344 1.15235,0 2.10938,-0.60547 0.76172,-0.50781 1.60156,-0.50781 0.82031,0 1.66016,0.50781 z m -5.01954,-9.55078 q 2.07032,-0.13672 3.02735,-2.36328 0.19531,-0.44922 0.19531,-0.83985 0,-1.5039 -3.00781,-1.93359 -1.38672,-0.19531 -2.22656,0.0391 l -0.83985,0.23438 q -1.83594,1.11328 -2.1289,2.87109 -0.0391,0.19531 -0.0391,0.3711 0,1.40625 2.16797,1.62109 0.70313,0 1.54297,0.0195 0.58594,0.0391 1.30859,-0.0195 z"
           inkscape:connector-curvature="0" />
        <path
           id="path4185"
           d="m 412.20859,-272.65283 q 0.39062,-0.25391 0.85937,-0.25391 0.60547,0 1.3086,0.41016 1.40625,1.11328 1.99218,2.8125 0.625,1.79687 1.85547,2.89062 0.56641,0.50782 2.14844,0.52735 1.48438,0.0195 1.54297,-0.70313 0.3125,-3.53515 2.69531,-5.68359 0.50781,-0.39063 1.64063,0.15625 1.13281,0.52734 1.13281,1.71875 0,0.33203 -0.0977,0.72265 -0.41015,1.69922 -0.83984,3.08594 -1.09375,3.84766 -2.16797,7.69531 -1.54297,4.62891 -3.86719,6.71875 -0.60547,0.54688 -2.1875,-0.15625 -1.34765,-0.60546 -2.16797,-2.42187 -0.68359,-1.5625 -1.34765,-3.125 -1.03516,-0.0977 -2.67578,-0.33203 -0.25391,-1.34766 -1.11328,-3.78906 -0.87891,-2.51954 -1.13282,-3.78907 -0.15625,-0.78125 -0.15625,-1.52343 0,-0.89844 0.23438,-1.77735 0.41015,-1.60156 2.34375,-3.18359 z m -12.91016,0.83984 q 1.15235,-0.17578 2.51953,0.15625 1.11328,0.54688 1.83594,2.07031 0.58594,1.3086 1.17188,2.61719 l 1.30859,0.27344 q 0.74219,0.15625 1.03516,0.56641 2.53906,4.72656 2.53906,8.78906 0,1.26953 -0.33203,2.40234 -0.50782,1.69922 -2.20703,2.38281 -1.40625,0.56641 -2.16797,0 -3.20313,-2.36328 -4.39453,-7.87109 -1.19141,-5.41016 -2.65625,-9.55078 -0.11719,-0.23438 -0.11719,-0.44922 0,-0.37109 0.3125,-0.72266 0.50781,-0.5664 1.15234,-0.66406 z"
           inkscape:connector-curvature="0" />
      </g>
      <g
         id="text4179-0-7"
         style="font-style:normal;font-variant:normal;font-weight:normal;font-stretch:normal;font-size:12.5px;line-height:125%;font-family:McKoy;-inkscape-font-specification:'McKoy, Normal';text-align:start;letter-spacing:0px;word-spacing:0px;writing-mode:lr-tb;text-anchor:start;fill:#999999;fill-opacity:1;stroke:none;stroke-width:1px;stroke-linecap:butt;stroke-linejoin:miter;stroke-opacity:1">
        <path
           id="path4196"
           d="m 396.4704,-247.91595 q 0.97046,-0.0244 1.15356,0.26245 0.18921,0.50659 0.19531,1.40991 0,1.03149 -0.0244,1.86767 -0.0122,0.5188 -0.0122,0.99488 0,0.41504 0.0122,0.80566 0.0183,0.83618 0.24414,1.2085 0.54321,0.89721 1.32446,0.89111 0.81788,0 1.76392,0.36621 0.27466,0.10376 0.1709,0.53101 -0.0977,0.40283 -0.27466,0.56762 -0.3479,0.32959 -1.18408,0.29908 -0.84839,-0.0366 -1.48316,-0.0366 -0.97045,0 -1.66626,-0.3418 -0.72631,-0.354 -0.74462,-1.51978 0,0 0,-3.28369 l 0,-3.28979 q 0,-0.64087 0.5249,-0.73242 z"
           inkscape:connector-curvature="0" />
        <path
           id="path4198"
           d="m 404.75287,-245.99945 q 0.0793,0.0305 0.15869,0.0549 l 0.15869,0.0488 q 0.26245,0.10986 0.30518,0.54932 0.0366,0.45776 -0.20142,0.55542 -0.061,0.0244 -1.5686,0.62866 -0.0427,0.0122 -0.0794,0.0122 -0.28686,0 -0.45166,-0.50659 -0.0671,-0.1831 -0.0671,-0.32348 0,-0.30518 0.28076,-0.43946 0.49439,-0.177 1.46485,-0.57983 z m -1.14746,3.50952 q 0.59204,-0.006 0.78125,0.31738 0.0366,0.10987 0.0366,0.21973 0,0.22583 -0.15259,0.44556 -0.12207,0.177 -0.12207,0.40893 0,0.57373 0.37842,0.8667 0.14038,0.10986 0.38452,0.36011 0.16479,0.1709 0.16479,0.39062 0,0.12207 -0.0488,0.25635 -0.14649,0.40283 -0.53101,0.45166 -1.17798,0.0366 -2.00195,-0.89111 -0.46997,-0.5249 -0.46997,-1.12305 0,-0.43335 0.32348,-0.8667 0.6897,-0.74463 1.25733,-0.83618 z m 2.61841,-3.19214 q 1.50756,0.22583 2.04467,2.0874 0.23194,0.82398 0.25025,1.80665 0.0183,1.13525 -0.0977,1.9165 -0.0793,0.53711 -0.48218,0.77515 -0.39672,0.23193 -0.82397,0.11596 -1.06201,-0.28686 -1.06201,-0.8789 0,-0.43946 0.37842,-1.11084 -0.23804,-0.73243 -0.58594,-2.13013 -0.21973,-0.87891 -0.21973,-1.5564 0,-0.39062 0.0732,-0.71411 0.0183,-0.32959 0.52491,-0.31128 z"
           inkscape:connector-curvature="0" />
        <path
           id="path4200"
           d="m 409.53802,-247.50092 q 0.13428,-0.29296 0.43335,-0.59814 0.39673,-0.40283 0.61036,-0.18921 0.177,0.177 0.46386,0.74463 0.31128,0.62256 0.48218,0.83618 0.1709,0.21362 0.46387,0.46387 0.39062,0.33569 0.531,0.26245 0.35401,-0.18311 0.67749,-0.18311 0.20142,0 0.38453,0.0671 1.23291,0.46997 1.83105,1.66626 0.48828,0.98267 0.48828,2.05078 0,0.58594 -0.15259,1.16578 -0.22583,0.81787 -0.85449,1.44653 -0.59814,0.60425 -1.42822,0.90332 -0.22583,0.0855 -0.43945,0.0855 -0.59205,0 -1.13526,-0.60425 l -0.531,0.13428 q -0.52491,0.13427 -0.59204,0.13427 -0.25025,0 -0.56763,-0.32958 -0.35401,-0.36011 -0.50659,-0.72632 -0.15259,-0.36621 -0.23194,-3.66211 -0.0305,-1.28784 -0.0183,-2.39258 0.0122,-1.10474 0.0916,-1.27564 z m 3.13721,7.22657 q 0.72632,-0.12818 1.10474,-0.81787 0.37231,-0.67139 0.37231,-1.44043 -0.006,-0.76294 -0.39062,-1.39771 -0.40283,-0.65308 -1.16577,-0.7019 -0.44556,-0.0305 -0.78125,0.39062 -0.32959,0.42114 -0.45166,0.72022 -0.17701,0.43335 -0.17701,1.02539 0,1.30005 0.65918,1.95923 0.27466,0.28076 0.64698,0.28076 0.0855,0 0.1831,-0.0183 z"
           inkscape:connector-curvature="0" />
        <path
           id="path4202"
           d="m 416.94159,-243.63739 q -0.0305,-0.64087 0.41504,-1.43433 0.46387,-0.84228 1.70898,-0.92773 0.82398,-0.0549 1.46485,0.15869 0.61035,0.20752 1.0498,0.5249 0.25025,0.17701 0.25025,0.37232 0,0.12817 -0.11597,0.25024 -0.27466,0.29907 -0.77515,0.21362 -0.31128,0.0122 -0.6958,-0.0549 -0.40283,-0.0671 -0.71411,0.11597 -0.30518,0.177 -0.23193,0.58594 0.0671,0.40893 0.34179,0.45166 1.01319,0.1709 1.81275,0.6958 0.94604,0.62866 1.12304,1.50757 0.1648,0.82397 -0.78125,1.63574 -0.39672,0.3418 -0.85449,0.50049 -0.48218,0.1709 -0.82397,0.006 -0.31128,-0.15259 -0.27466,-0.50659 0.10376,-0.46387 0.23804,-1.40381 0.0183,-0.31738 -0.32959,-0.44556 -1.06202,-0.20141 -1.80664,-0.68969 -0.95826,-0.63477 -1.00098,-1.5564 z m 0.65918,3.24097 q 0.20752,0.061 0.89111,0.23803 l 0.88501,0.23804 q 0.18921,0.0855 0.18921,0.23804 0,0.1709 -0.18921,0.49438 -0.0549,0.0854 -0.15259,0.26245 -0.12207,0.18311 -0.34179,0.28687 -0.23804,0.10376 -0.50049,-0.0366 -0.61646,-0.32959 -0.71411,-0.39063 -0.37232,-0.23803 -0.59204,-0.54321 -0.0488,-0.1709 -0.0855,-0.29297 -0.061,-0.16479 0.0793,-0.3418 0.14038,-0.1831 0.32349,-0.1831 0.0915,0 0.20752,0.0305 z"
           inkscape:connector-curvature="0" />
      </g>
    </g>
  </g>
</svg>
