<?xml version="1.0" encoding="UTF-8" standalone="no"?>
<!-- Generator: Adobe Fireworks CS6, Export SVG Extension by Aaron Beall (http://fireworks.abeall.com) . Version: 0.6.1  -->

<svg
   xmlns:dc="http://purl.org/dc/elements/1.1/"
   xmlns:cc="http://creativecommons.org/ns#"
   xmlns:rdf="http://www.w3.org/1999/02/22-rdf-syntax-ns#"
   xmlns:svg="http://www.w3.org/2000/svg"
   xmlns="http://www.w3.org/2000/svg"
   xmlns:sodipodi="http://sodipodi.sourceforge.net/DTD/sodipodi-0.dtd"
   xmlns:inkscape="http://www.inkscape.org/namespaces/inkscape"
   id="IPE_IMAGES_FW-IPE_LOGO_BIG"
   viewBox="0 0 430 414"
   style="background-color:#ffffff00"
   version="1.1"
   xml:space="preserve"
   x="0px"
   y="0px"
   width="430px"
   height="414px"
   inkscape:version="0.91 r13725"
   sodipodi:docname="IPE_logo_big_bw.svg"><metadata
     id="metadata88"><rdf:RDF><cc:Work
         rdf:about=""><dc:format>image/svg+xml</dc:format><dc:type
           rdf:resource="http://purl.org/dc/dcmitype/StillImage" /><dc:title></dc:title></cc:Work></rdf:RDF></metadata><defs
     id="defs86" /><sodipodi:namedview
     pagecolor="#ffffff"
     bordercolor="#666666"
     borderopacity="1"
     objecttolerance="10"
     gridtolerance="10"
     guidetolerance="10"
     inkscape:pageopacity="0"
     inkscape:pageshadow="2"
     inkscape:window-width="1280"
     inkscape:window-height="776"
     id="namedview84"
     showgrid="false"
     inkscape:zoom="1.396173"
     inkscape:cx="214.28376"
     inkscape:cy="207"
     inkscape:window-x="0"
     inkscape:window-y="24"
     inkscape:window-maximized="1"
     inkscape:current-layer="IPE_IMAGES_FW-IPE_LOGO_BIG" /><path
     style="fill:#a8a8a7;opacity:0.1;fill-opacity:0.65882355"
     inkscape:connector-curvature="0"
     d="m 222,1e-4 c 114.0468,0 206.5,92.4532 206.5,206.5 0,114.0468 -92.4532,206.5 -206.5,206.5 -114.0468,0 -206.4999,-92.4532 -206.4999,-206.5 C 15.5001,92.4533 107.9532,1e-4 222,1e-4 Z"
     id="Ellipse%201" /><path
     style="fill:#b3b3b3"
     inkscape:connector-curvature="0"
     id="path5"
     d="m 82.0775,197.9711 -2.015,0 0,4.875 10.875,0 0,-4.875 -2.015,0 0,-26.0336 2.015,0 0,-4.875 -10.875,0 0,4.875 2.015,0 0,26.0336 0,0 z" /><path
     style="fill:#b3b3b3"
     inkscape:connector-curvature="0"
     id="path7"
     d="m 117.0775,189.2933 -11.14,-22.2308 -10.875,0 0,4.875 2.039,0 0,26.0336 -2.039,0 0,4.875 10.875,0 0,-4.875 -2.039,0 0,-20.4758 13.179,25.3508 8.86,0 0,-4.875 -2.015,0 0,-26.0336 2.015,0 0,-4.875 -10.875,0 0,4.875 2.015,0 0,17.3558 0,0 z" /><path
     style="fill:#b3b3b3"
     inkscape:connector-curvature="0"
     id="path9"
     d="m 148.6962,203 11.2413,0 0,-6.8624 -4.875,0 0,1.8335 c 0,0 -4.0687,0 -6.3663,0 -7.2279,0 -11.7274,-7.2578 -11.7274,-13.6986 0,-6.2965 3.4943,-11.3452 10.2435,-12.209 2.2976,-0.3359 4.8824,-0.2399 7.8502,0.288 l 0,1.5836 4.875,0 0,-5.4227 c -3.9375,-1.6317 -8.5129,-2.4475 -13.0602,-2.4475 -6.4142,0 -12.1582,2.9273 -15.0302,8.931 -2.154,4.7585 -2.4412,12.0163 -0.7659,16.8709 2.5369,7.5942 9.4298,10.9793 17.615,10.9793 l 0,0.1539 0,0 z" /><path
     style="fill:#b3b3b3"
     inkscape:connector-curvature="0"
     id="path11"
     d="m 193.9225,195.4698 0,-23.5323 2.015,0 0,-4.875 -10.875,0 0,4.875 2.015,0 0,21.7222 c 0,0 0.0479,4.4028 -6.7048,4.4028 -5.4502,0 -5.4502,-4.4028 -5.4502,-4.4028 l 0,-21.7222 2.015,0 0,-4.875 -10.875,0 0,4.875 2.015,0 0,23.4833 c 0,5.3267 5.5526,7.5167 12.5345,7.5167 7.5186,0 13.3105,-2.1487 13.3105,-7.4677 l 0,0 z" /><path
     style="fill:#b3b3b3"
     inkscape:connector-curvature="0"
     id="path13"
     d="m 199.9235,171.9375 2.154,0 0,26.0336 -2.154,0 0,4.875 13.7222,0 c 7.3892,0 13.2768,-2.9789 13.2768,-10.3423 0,-4.1868 -2.1062,-7.2814 -5.6483,-8.4098 2.0687,-1.4444 3.6483,-4.3373 3.6483,-7.7959 0,-7.3395 -6.6057,-9.2356 -12.3761,-9.2356 l -12.6229,0 0,4.875 0,0 z m 8.999,15 5.4836,0 c 3.6111,0 5.6714,2.2661 5.6714,5.4185 0,3.3494 -2.2613,5.6151 -5.5273,5.6151 l -5.6277,0 0,-11.0336 0,0 z m 5.1252,-4.875 -5.1252,0 0,-10.125 4.3212,0 c 2.9267,0 4.8338,2.105 4.8338,5.0624 0,3.0075 -1.621,5.0626 -4.2913,5.0626 l 0.2615,0 0,0 z" /><path
     style="fill:#b3b3b3"
     inkscape:connector-curvature="0"
     id="path15"
     d="m 262.512,202.8461 0,-4.875 -2.1062,0 -11.2487,-30.9086 -6.4141,0 -11.2009,30.9086 -2.1061,0 0,4.875 7.2758,0 3.1592,-8.9086 12.2539,0 3.0635,8.9086 7.3236,0 0,0 z m -20.87,-13.7836 4.3559,-12.5723 4.308,12.5723 -8.6639,0 0,0 z" /><path
     style="fill:#b3b3b3"
     inkscape:connector-curvature="0"
     id="path17"
     d="m 276.8986,197.9711 0,-26.0336 5.2174,0 -0.115,2 4.9303,0 0,-6.875 -26.8626,0 0,6.875 4.9303,0 -0.0672,-2 5.1696,0 0,26.0336 -2.0389,0 0,4.875 10.875,0 0,-4.875 -2.0389,0 0,0 z" /><path
     style="fill:#b3b3b3"
     inkscape:connector-curvature="0"
     id="path19"
     d="m 293.0775,197.9711 -2.1061,0 0,4.875 26.9661,0 0,-6.9308 -4.875,0 0,2.0558 -13.14,0 0,-11.0336 12.1231,0 0,-4.875 -12.1231,0 0,-10.125 13.14,0 0,2 4.875,0 0,-6.875 -26.9661,0 0,4.875 2.1061,0 0,26.0336 0,0 z" /><path
     style="fill:#b3b3b3"
     inkscape:connector-curvature="0"
     id="path21"
     d="m 350.9225,195.4698 0,-23.5323 2.015,0 0,-4.875 -10.875,0 0,4.875 2.015,0 0,21.7222 c 0,0 0.0479,4.4028 -6.7048,4.4028 -5.4502,0 -5.4502,-4.4028 -5.4502,-4.4028 l 0,-21.7222 2.015,0 0,-4.875 -10.875,0 0,4.875 2.015,0 0,23.4833 c 0,5.3267 5.5526,7.5167 12.5345,7.5167 7.5186,0 13.3105,-2.1487 13.3105,-7.4677 l 0,0 z" /><path
     style="fill:#b3b3b3"
     inkscape:connector-curvature="0"
     id="path23"
     d="m 359.0775,197.9711 -2.015,0 0,4.875 10.875,0 0,-4.875 -2.015,0 0,-9.0336 5.1518,0 6.3861,11.8324 c 1.7711,2.844 6.127,2.988 8.9512,2.0762 l 0,-4.875 c -5.3133,-0.6302 -4.7867,-5.7773 -8.281,-10.1168 0,0 5.7919,-0.8576 5.7919,-9.9489 0,-10.9389 -9.1468,-10.8429 -12.6481,-10.8429 l -14.2119,0 0,4.875 2.015,0 0,26.0336 0,0 z m 12.1969,-13.9086 -5.3519,0 0,-12.125 5.3519,0 c 0,0 5.8031,-0.4062 5.8031,6.0634 0,6.4682 -5.8031,6.0139 -5.8031,6.0616 l 0,0 z" /><path
     style="fill:#b3b3b3"
     inkscape:connector-curvature="0"
     id="path25"
     d="m 145.0775,242.9711 -2.015,0 0,4.875 10.875,0 0,-4.875 -2.015,0 0,-8.0336 c 0,0 4.1644,0 5.2653,0 16.7055,0 16.6098,-22.875 0.0479,-22.875 l -14.1732,0 0,4.875 2.015,0 0,26.0336 0,0 z m 11.1051,-26.0336 c 0.1251,0 6.7549,0 6.7549,6.5861 0,6.5389 -6.6298,6.5389 -6.6298,6.5389 l -4.2452,0 0,-13.125 4.2452,0 -0.1251,0 0,0 z" /><path
     style="fill:#b3b3b3"
     inkscape:connector-curvature="0"
     id="path27"
     d="m 201.512,247.8461 0,-4.875 -2.1062,0 -11.2487,-30.9086 -6.4141,0 -11.2009,30.9086 -2.1061,0 0,4.875 7.2758,0 3.1592,-8.9086 12.2539,0 3.0635,8.9086 7.3236,0 0,0 z m -20.87,-13.7836 4.3559,-12.5723 4.308,12.5723 -8.6639,0 0,0 z" /><path
     style="fill:#b3b3b3"
     inkscape:connector-curvature="0"
     id="path29"
     d="m 222.6962,248 11.2413,0 0,-6.8624 -4.875,0 0,1.8335 c 0,0 -4.0687,0 -6.3663,0 -7.2279,0 -11.7274,-7.2578 -11.7274,-13.6986 0,-6.2965 3.4943,-11.3452 10.2435,-12.209 2.2976,-0.3359 4.8824,-0.2399 7.8502,0.288 l 0,1.5836 4.875,0 0,-5.4227 c -3.9375,-1.6317 -8.5129,-2.4475 -13.0602,-2.4475 -6.4142,0 -12.1582,2.9273 -15.0302,8.931 -2.154,4.7585 -2.4412,12.0163 -0.7659,16.8709 2.5369,7.5942 9.4298,10.9793 17.615,10.9793 l 0,0.1539 0,0 z" /><path
     style="fill:#b3b3b3"
     inkscape:connector-curvature="0"
     id="path31"
     d="m 271.512,247.8461 0,-4.875 -2.1062,0 -11.2487,-30.9086 -6.4141,0 -11.2009,30.9086 -2.1061,0 0,4.875 7.2758,0 3.1592,-8.9086 12.2539,0 3.0635,8.9086 7.3236,0 0,0 z m -20.87,-13.7836 4.3559,-12.5723 4.308,12.5723 -8.6639,0 0,0 z" /><path
     style="fill:#b3b3b3"
     inkscape:connector-curvature="0"
     id="path33"
     d="m 290.9022,236.9375 0,-3.875 -15.9875,0 0,3.875 15.9875,0 0,0 z" /><path
     style="fill:#b3b3b3"
     inkscape:connector-curvature="0"
     id="path35"
     d="m 297.0775,242.9711 -2.1061,0 0,4.875 26.9661,0 0,-6.9308 -4.875,0 0,2.0558 -13.14,0 0,-11.0336 12.1231,0 0,-4.875 -12.1231,0 0,-10.125 13.14,0 0,2 4.875,0 0,-6.875 -26.9661,0 0,4.875 2.1061,0 0,26.0336 0,0 z" /><path
     style="fill:#b3b3b3"
     inkscape:connector-curvature="0"
     id="path37"
     d="m 354.9479,224.2284 0,-5.0387 -2.0104,0 c 0,-5.354 -5.5434,-7.1272 -11.709,-7.1272 -6.7181,0 -12.166,2.1358 -12.166,8.9372 0,6.6042 4.4909,8.9523 9.6662,10.7624 3.9368,1.6632 8.3488,2.9351 8.3488,6.5552 0,2.9352 -2.826,4.7452 -6.5926,4.7452 -3.1719,0 -6.6411,-1.4676 -6.6411,-5.5768 l 0,-3.8647 -7.6875,0 0,5.0387 2.9062,0 c 0,6.9225 6.1478,9.2778 11.7863,9.2778 6.8031,0 13.0737,-2.5206 13.0737,-9.5713 0,-6.7998 -5.6483,-9.4904 -10.8002,-11.4472 -3.503,-1.4676 -7.1998,-2.5438 -7.1998,-5.9193 0,-2.7884 2.298,-4.0622 5.3454,-4.0622 2.6477,0 5.7946,0.8335 5.7946,4.4047 l 0,2.8862 7.8854,0 0,0 z" /><path
     style="fill:#b3b3b3"
     inkscape:connector-curvature="0"
     id="path39"
     d="m 375.8986,242.9711 0,-26.0336 5.2174,0 -0.115,2 4.9303,0 0,-6.875 -26.8626,0 0,6.875 4.9303,0 -0.0672,-2 5.1696,0 0,26.0336 -2.0389,0 0,4.875 10.875,0 0,-4.875 -2.0389,0 0,0 z" /><path
     style="fill:#fffb00"
     inkscape:connector-curvature="0"
     d="m 82.6152,151.4811 c 1.9468,-1.0416 4.3703,-0.31 5.4132,1.6346 1.043,1.9444 0.3103,4.3653 -1.6364,5.4071 -1.9467,1.0416 -4.3702,0.3098 -5.4132,-1.6346 -1.0429,-1.9445 -0.3103,-4.3653 1.6364,-5.4071 z"
     id="Ellipse%202" /><path
     style="fill:#fffb00"
     inkscape:connector-curvature="0"
     id="path42"
     d="m 166.0625,278.9375 1.875,0 0,-17.875 -1.875,0 0,17.875 0,0 z" /><path
     style="fill:#fffb00"
     inkscape:connector-curvature="0"
     id="path44"
     d="m 180.5422,269.4991 c -1.0091,-0.9376 -2.4865,-1.4285 -4.0431,-1.4285 -1.2927,0 -2.5327,0.5133 -3.5616,1.1829 l 0,-1.191 -1.875,0 0,10.875 1.875,0 0,-5.8407 c 0,-1.6974 1.6093,-3.1512 3.5616,-3.1512 1.9787,0 3.5634,1.4538 3.5634,3.215 l 0,5.7769 1.875,0 0,-5.7769 c 0,-1.409 -0.5013,-2.7005 -1.3953,-3.6615 l 0,0 z" /><path
     style="fill:#fffb00"
     inkscape:connector-curvature="0"
     id="path46"
     d="m 193.5422,269.4991 c -1.0091,-0.9376 -2.4865,-1.4285 -4.0431,-1.4285 -1.2927,0 -2.5327,0.5133 -3.5616,1.1829 l 0,-1.191 -1.875,0 0,10.875 1.875,0 0,-5.8407 c 0,-1.6974 1.6093,-3.1512 3.5616,-3.1512 1.9787,0 3.5634,1.4538 3.5634,3.215 l 0,5.7769 1.875,0 0,-5.7769 c 0,-1.409 -0.5013,-2.7005 -1.3953,-3.6615 l 0,0 z" /><path
     style="fill:#fffb00"
     inkscape:connector-curvature="0"
     id="path48"
     d="m 206.3896,269.5989 c -1.0213,-0.9812 -2.4092,-1.5043 -3.8897,-1.5043 -1.4805,0 -2.8684,0.5231 -3.9111,1.5043 -0.9812,1.0389 -1.5263,2.4186 -1.5263,3.8903 0,1.4716 0.5451,2.8513 1.5263,3.8899 1.0427,0.9812 2.4306,1.5263 3.9111,1.5263 1.4805,0 2.8684,-0.5451 3.8897,-1.5263 1.003,-1.0386 1.5479,-2.4183 1.5479,-3.8899 0,-1.4717 -0.5449,-2.8514 -1.5479,-3.8903 l 0,0 z m -3.8897,7.4315 c -1.9663,0 -3.5624,-1.5867 -3.5624,-3.5412 0,-1.9546 1.5961,-3.5196 3.5624,-3.5196 1.9662,0 3.5626,1.565 3.5626,3.5196 0,1.9545 -1.5964,3.5412 -3.5626,3.5412 l 0,0 z" /><path
     style="fill:#fffb00"
     inkscape:connector-curvature="0"
     id="path50"
     d="m 217.4328,268.0625 -3.3363,8.1684 -3.3603,-8.1684 -2.2322,0 4.4644,10.875 2.2322,0 4.4644,-10.875 -2.2322,0 0,0 z" /><path
     style="fill:#fffb00"
     inkscape:connector-curvature="0"
     id="path52"
     d="m 231.113,272.1138 c -0.1921,-0.9306 -0.6961,-1.7725 -1.3682,-2.474 -0.984,-1.0313 -2.3042,-1.6172 -3.7443,-1.6172 -1.4161,0 -2.7602,0.5859 -3.7203,1.6172 -0.6721,0.7015 -1.1521,1.5434 -1.3681,2.474 -0.096,0.4301 -0.144,0.8622 -0.144,1.2942 0,0.168 0,0.3361 0.024,0.5047 0.096,1.3092 0.624,2.4994 1.4881,3.4241 0.9601,1.0547 2.2802,1.6406 3.7203,1.6406 1.0321,-0.0469 2.0642,-0.3047 2.9043,-0.7969 0.552,-0.3281 1.0321,-0.7265 1.4641,-1.1971 l -1.7282,-1.0236 c -0.696,0.6903 -1.7041,1.095 -2.6882,1.1426 -1.5841,-0.0238 -2.9522,-1.3806 -3.1923,-3.1897 l 0,-0.0486 8.4728,0 c 0.024,-0.216 0.048,-0.7681 -0.12,-1.7503 l 0,0 z m -8.1847,0.0221 0.024,-0.0443 c 0.504,-1.3072 1.7281,-2.194 3.0482,-2.194 1.3441,0 2.5682,0.8868 3.0483,2.194 l 0.024,0.0443 -6.1445,0 0,0 z" /><path
     style="fill:#fffb00"
     inkscape:connector-curvature="0"
     id="path54"
     d="m 235.9375,268 -1.875,0 0,10.9375 1.875,0 0,-5.8192 c 0,-1.8364 1.5842,-3.2941 3.5043,-3.2941 l 0.5041,-1.7617 c -1.2721,0 -3.3123,0.5801 -4.0084,1.3237 l 0,-1.3862 0,0 z" /><path
     style="fill:#fffb00"
     inkscape:connector-curvature="0"
     id="path56"
     d="m 239.7522,280.9375 c 0,0 1.6561,-1.7007 1.7281,-1.7951 0.216,-0.2126 0.504,-0.6378 0.24,-1.3228 -0.12,-0.3071 -0.384,-0.5433 -0.696,-0.6614 -0.1441,-0.0708 -0.3121,-0.0957 -0.4561,-0.0957 -0.528,0 -0.9841,0.3083 -1.1761,0.7807 -0.24,0.5905 0.024,1.2519 0.5761,1.5354 l -1.4882,1.5589 1.2722,0 0,0 z" /><path
     style="fill:#fffb00"
     inkscape:connector-curvature="0"
     id="path58"
     d="m 250.0625,278.8814 10.2997,0 0,-1.875 -8.4247,0 0,-7.0008 7.5367,0 0,-1.875 -7.5367,0 0,-5.161 8.6407,0 0,-1.875 -10.5157,0 0,17.7868 0,0 z" /><path
     style="fill:#fffb00"
     inkscape:connector-curvature="0"
     id="path60"
     d="m 272.5422,269.4991 c -1.0091,-0.9376 -2.4865,-1.4285 -4.0431,-1.4285 -1.2927,0 -2.5327,0.5133 -3.5616,1.1829 l 0,-1.191 -1.875,0 0,10.875 1.875,0 0,-5.8407 c 0,-1.6974 1.6093,-3.1512 3.5616,-3.1512 1.9787,0 3.5634,1.4538 3.5634,3.215 l 0,5.7769 1.875,0 0,-5.7769 c 0,-1.409 -0.5013,-2.7005 -1.3953,-3.6615 l 0,0 z" /><path
     style="fill:#fffb00"
     inkscape:connector-curvature="0"
     id="path62"
     d="m 280.5217,278.9534 2.4242,0 -0.5281,-1.875 -1.8482,0 c -0.864,0 -1.6321,-0.8518 -1.6321,-1.7523 l 0,-5.4045 3.3843,0 0,-1.875 -3.3843,0 0,-3.9841 -1.875,0 0,3.9841 -1.6321,0 0,1.875 1.6321,0 0,5.4532 c 0,2.0462 1.4827,3.5786 3.4592,3.5786 l 0,0 z" /><path
     style="fill:#fffb00"
     inkscape:connector-curvature="0"
     id="path64"
     d="m 287.9375,268 -1.875,0 0,10.9375 1.875,0 0,-5.8192 c 0,-1.8364 1.5842,-3.2941 3.5043,-3.2941 l 0.5041,-1.7617 c -1.2721,0 -3.3123,0.5801 -4.0084,1.3237 l 0,-1.3862 0,0 z" /><path
     style="fill:#fffb00"
     inkscape:connector-curvature="0"
     id="path66"
     d="m 302.113,272.1138 c -0.192,-0.9306 -0.6961,-1.7725 -1.3682,-2.474 -0.9841,-1.0313 -2.3042,-1.6172 -3.7443,-1.6172 -1.4161,0 -2.7602,0.5859 -3.7203,1.6172 -0.672,0.7015 -1.1521,1.5434 -1.3681,2.474 -0.096,0.4301 -0.144,0.8622 -0.144,1.2942 0,0.168 0,0.3361 0.024,0.5047 0.096,1.3092 0.624,2.4994 1.4881,3.4241 0.9601,1.0547 2.2802,1.6406 3.7203,1.6406 1.0321,-0.0469 2.0642,-0.3047 2.9043,-0.7969 0.552,-0.3281 1.0321,-0.7265 1.4641,-1.1971 l -1.7282,-1.0236 c -0.696,0.6903 -1.7041,1.095 -2.6882,1.1426 -1.5841,-0.0238 -2.9523,-1.3806 -3.1922,-3.1897 l 0,-0.0486 8.4727,0 c 0.024,-0.216 0.048,-0.7681 -0.12,-1.7503 l 0,0 z m -8.1847,0.0221 0.024,-0.0443 c 0.504,-1.3072 1.7281,-2.194 3.0482,-2.194 1.3441,0 2.5682,0.8868 3.0483,2.194 l 0.024,0.0443 -6.1445,0 0,0 z" /><path
     style="fill:#fffb00"
     inkscape:connector-curvature="0"
     id="path68"
     d="m 314.3896,269.6107 c -1.1177,-1.0045 -2.7007,-1.5401 -4.3892,-1.5401 -1.5038,0 -2.9284,0.6026 -4.0629,1.4062 l 0,-1.4143 -1.875,0 0,16.875 1.875,0 0,-7.4145 c 1.1345,0.8037 2.5591,1.4064 4.0629,1.4064 1.6885,0 3.2715,-0.5357 4.3892,-1.5403 1.003,-1.0608 1.5479,-2.4661 1.5479,-3.9651 0,-1.4991 -0.5449,-2.9044 -1.5479,-3.9818 l 0,0.1685 0,0 z m -4.3892,7.4437 c -2.2425,0 -4.0629,-1.6395 -4.0629,-3.6304 0,-1.8738 1.8204,-3.4784 4.0629,-3.4784 2.2425,0 4.0621,1.6046 4.0621,3.554 0,1.9494 -1.8196,3.5548 -4.0621,3.5548 l 0,0 z" /><path
     style="fill:#fffb00"
     inkscape:connector-curvature="0"
     id="path70"
     d="m 319.9375,268 -1.875,0 0,10.9375 1.875,0 0,-5.8192 c 0,-1.8364 1.5842,-3.2941 3.5043,-3.2941 l 0.5041,-1.7617 c -1.2721,0 -3.3123,0.5801 -4.0084,1.3237 l 0,-1.3862 0,0 z" /><path
     style="fill:#fffb00"
     inkscape:connector-curvature="0"
     id="path72"
     d="m 334.113,272.1138 c -0.192,-0.9306 -0.6961,-1.7725 -1.3682,-2.474 -0.9841,-1.0313 -2.3042,-1.6172 -3.7443,-1.6172 -1.4161,0 -2.7602,0.5859 -3.7203,1.6172 -0.672,0.7015 -1.1521,1.5434 -1.3681,2.474 -0.096,0.4301 -0.144,0.8622 -0.144,1.2942 0,0.168 0,0.3361 0.024,0.5047 0.096,1.3092 0.624,2.4994 1.4881,3.4241 0.9601,1.0547 2.2802,1.6406 3.7203,1.6406 1.0321,-0.0469 2.0642,-0.3047 2.9043,-0.7969 0.552,-0.3281 1.0321,-0.7265 1.4641,-1.1971 l -1.7282,-1.0236 c -0.696,0.6903 -1.7041,1.095 -2.6882,1.1426 -1.5841,-0.0238 -2.9523,-1.3806 -3.1922,-3.1897 l 0,-0.0486 8.4727,0 c 0.024,-0.216 0.048,-0.7681 -0.12,-1.7503 l 0,0 z m -8.1847,0.0221 0.024,-0.0443 c 0.504,-1.3072 1.7281,-2.194 3.0482,-2.194 1.3441,0 2.5682,0.8868 3.0483,2.194 l 0.024,0.0443 -6.1445,0 0,0 z" /><path
     style="fill:#fffb00"
     inkscape:connector-curvature="0"
     id="path74"
     d="m 345.5422,269.4991 c -1.0091,-0.9376 -2.4865,-1.4285 -4.0431,-1.4285 -1.2927,0 -2.5327,0.5133 -3.5616,1.1829 l 0,-1.191 -1.875,0 0,10.875 1.875,0 0,-5.8407 c 0,-1.6974 1.6093,-3.1512 3.5616,-3.1512 1.9787,0 3.5634,1.4538 3.5634,3.215 l 0,5.7769 1.875,0 0,-5.7769 c 0,-1.409 -0.5013,-2.7005 -1.3953,-3.6615 l 0,0 z" /><path
     style="fill:#fffb00"
     inkscape:connector-curvature="0"
     id="path76"
     d="m 358.0625,269.4768 c -0.9949,-0.8036 -2.2441,-1.4062 -3.5626,-1.4062 -1.4805,0 -2.8684,0.5356 -3.9111,1.5401 -0.9812,1.0451 -1.5263,2.4212 -1.5263,3.8889 0,1.4678 0.5451,2.8438 1.5263,3.8895 1.0427,1.0046 2.4306,1.5403 3.9111,1.5403 1.3185,0 2.5677,-0.6027 3.5626,-1.4064 l 0,1.4145 1.875,0 0,-17.875 -1.875,0 0,8.4143 0,0 z m -3.5626,7.5776 c -1.9663,0 -3.5624,-1.6054 -3.5624,-3.5548 0,-1.9494 1.5961,-3.554 3.5624,-3.554 1.9662,0 3.5626,1.6046 3.5626,3.554 0,1.9494 -1.5964,3.5548 -3.5626,3.5548 l 0,0 z" /><path
     style="fill:#fffb00"
     inkscape:connector-curvature="0"
     id="path78"
     d="m 365.9375,268 -1.875,0 0,10.9375 1.875,0 0,-5.8192 c 0,-1.8364 1.5842,-3.2941 3.5043,-3.2941 l 0.5041,-1.7617 c -1.2721,0 -3.3123,0.5801 -4.0084,1.3237 l 0,-1.3862 0,0 z" /><path
     style="fill:#fffb00"
     inkscape:connector-curvature="0"
     id="path80"
     d="m 380.113,272.1138 c -0.192,-0.9306 -0.6961,-1.7725 -1.3682,-2.474 -0.9841,-1.0313 -2.3042,-1.6172 -3.7443,-1.6172 -1.4161,0 -2.7602,0.5859 -3.7203,1.6172 -0.672,0.7015 -1.1521,1.5434 -1.3681,2.474 -0.096,0.4301 -0.144,0.8622 -0.144,1.2942 0,0.168 0,0.3361 0.024,0.5047 0.096,1.3092 0.624,2.4994 1.4881,3.4241 0.9601,1.0547 2.2802,1.6406 3.7203,1.6406 1.0321,-0.0469 2.0642,-0.3047 2.9043,-0.7969 0.552,-0.3281 1.0321,-0.7265 1.4641,-1.1971 l -1.7282,-1.0236 c -0.696,0.6903 -1.7041,1.095 -2.6882,1.1426 -1.5841,-0.0238 -2.9523,-1.3806 -3.1922,-3.1897 l 0,-0.0486 8.4727,0 c 0.024,-0.216 0.048,-0.7681 -0.12,-1.7503 l 0,0 z m -8.1847,0.0221 0.024,-0.0443 c 0.504,-1.3072 1.7281,-2.194 3.0482,-2.194 1.3441,0 2.5682,0.8868 3.0483,2.194 l 0.024,0.0443 -6.1445,0 0,0 z" /><path
     style="opacity:0.50199998;fill:#ffffff"
     inkscape:connector-curvature="0"
     id="path82"
     d="m 156.75,273.75 c 0.7692,0.8411 -32.3922,6.6748 -32.5,5.75 -0.1518,-1.302 10.8536,-4.8498 10.4167,-4.8333 -2.4838,0.0933 -33.1115,-4.9712 -47.5639,-9.518 C 77.228,262.0484 -12.5,247 1.5,214 23.8333,196.6667 56.1816,195.7155 63,194.5 71.2899,193.0222 9.2545,202.7948 7.5,218 c -3.8527,33.3898 126.9902,53.2982 126.5,52.6667 -3.0125,-3.8813 -8.0214,-6.8404 -8.6667,-7.6667 -0.9964,-1.2763 29.2866,8.4212 31.4167,10.75 z" /></svg>