<?xml version="1.0" encoding="UTF-8" standalone="no"?>
<!-- Generator: Adobe Fireworks CS6, Export SVG Extension by Aaron Beall (http://fireworks.abeall.com) . Version: 0.6.1  -->
<!DOCTYPE svg PUBLIC "-//W3C//DTD SVG 1.1//EN" "http://www.w3.org/Graphics/SVG/1.1/DTD/svg11.dtd">
<svg id="IPE_IMAGES_FW-IPE_LOGO_BIG" viewBox="0 0 430 414" style="background-color:#ffffff00" version="1.1" xmlns="http://www.w3.org/2000/svg" xmlns:xlink="http://www.w3.org/1999/xlink" xml:space="preserve" x="0px" y="0px" width="430px" height="414px">
	<g id="Calque%201">
		<path id="Ellipse%201" d="M 222 0.0001 C 336.0468 0.0001 428.5 92.4533 428.5 206.5001 C 428.5 320.5469 336.0468 413.0001 222 413.0001 C 107.9532 413.0001 15.5001 320.5469 15.5001 206.5001 C 15.5001 92.4533 107.9532 0.0001 222 0.0001 Z" fill="#00a8ff"/>
		<path d="M 82.0775 197.9711 L 80.0625 197.9711 L 80.0625 202.8461 L 90.9375 202.8461 L 90.9375 197.9711 L 88.9225 197.9711 L 88.9225 171.9375 L 90.9375 171.9375 L 90.9375 167.0625 L 80.0625 167.0625 L 80.0625 171.9375 L 82.0775 171.9375 L 82.0775 197.9711 L 82.0775 197.9711 Z" fill="#ffffff"/>
		<path d="M 117.0775 189.2933 L 105.9375 167.0625 L 95.0625 167.0625 L 95.0625 171.9375 L 97.1015 171.9375 L 97.1015 197.9711 L 95.0625 197.9711 L 95.0625 202.8461 L 105.9375 202.8461 L 105.9375 197.9711 L 103.8985 197.9711 L 103.8985 177.4953 L 117.0775 202.8461 L 125.9375 202.8461 L 125.9375 197.9711 L 123.9225 197.9711 L 123.9225 171.9375 L 125.9375 171.9375 L 125.9375 167.0625 L 115.0625 167.0625 L 115.0625 171.9375 L 117.0775 171.9375 L 117.0775 189.2933 L 117.0775 189.2933 Z" fill="#ffffff"/>
		<path d="M 148.6962 203 L 159.9375 203 L 159.9375 196.1376 L 155.0625 196.1376 L 155.0625 197.9711 C 155.0625 197.9711 150.9938 197.9711 148.6962 197.9711 C 141.4683 197.9711 136.9688 190.7133 136.9688 184.2725 C 136.9688 177.976 140.4631 172.9273 147.2123 172.0635 C 149.5099 171.7276 152.0947 171.8236 155.0625 172.3515 L 155.0625 173.9351 L 159.9375 173.9351 L 159.9375 168.5124 C 156 166.8807 151.4246 166.0649 146.8773 166.0649 C 140.4631 166.0649 134.7191 168.9922 131.8471 174.9959 C 129.6931 179.7544 129.4059 187.0122 131.0812 191.8668 C 133.6181 199.461 140.511 202.8461 148.6962 202.8461 L 148.6962 203 L 148.6962 203 Z" fill="#ffffff"/>
		<path d="M 193.9225 195.4698 L 193.9225 171.9375 L 195.9375 171.9375 L 195.9375 167.0625 L 185.0625 167.0625 L 185.0625 171.9375 L 187.0775 171.9375 L 187.0775 193.6597 C 187.0775 193.6597 187.1254 198.0625 180.3727 198.0625 C 174.9225 198.0625 174.9225 193.6597 174.9225 193.6597 L 174.9225 171.9375 L 176.9375 171.9375 L 176.9375 167.0625 L 166.0625 167.0625 L 166.0625 171.9375 L 168.0775 171.9375 L 168.0775 195.4208 C 168.0775 200.7475 173.6301 202.9375 180.612 202.9375 C 188.1306 202.9375 193.9225 200.7888 193.9225 195.4698 L 193.9225 195.4698 Z" fill="#ffffff"/>
		<path d="M 199.9235 171.9375 L 202.0775 171.9375 L 202.0775 197.9711 L 199.9235 197.9711 L 199.9235 202.8461 L 213.6457 202.8461 C 221.0349 202.8461 226.9225 199.8672 226.9225 192.5038 C 226.9225 188.317 224.8163 185.2224 221.2742 184.094 C 223.3429 182.6496 224.9225 179.7567 224.9225 176.2981 C 224.9225 168.9586 218.3168 167.0625 212.5464 167.0625 L 199.9235 167.0625 L 199.9235 171.9375 L 199.9235 171.9375 ZM 208.9225 186.9375 L 214.4061 186.9375 C 218.0172 186.9375 220.0775 189.2036 220.0775 192.356 C 220.0775 195.7054 217.8162 197.9711 214.5502 197.9711 L 208.9225 197.9711 L 208.9225 186.9375 L 208.9225 186.9375 ZM 214.0477 182.0625 L 208.9225 182.0625 L 208.9225 171.9375 L 213.2437 171.9375 C 216.1704 171.9375 218.0775 174.0425 218.0775 176.9999 C 218.0775 180.0074 216.4565 182.0625 213.7862 182.0625 L 214.0477 182.0625 L 214.0477 182.0625 Z" fill="#ffffff"/>
		<path d="M 262.512 202.8461 L 262.512 197.9711 L 260.4058 197.9711 L 249.1571 167.0625 L 242.743 167.0625 L 231.5421 197.9711 L 229.436 197.9711 L 229.436 202.8461 L 236.7118 202.8461 L 239.871 193.9375 L 252.1249 193.9375 L 255.1884 202.8461 L 262.512 202.8461 L 262.512 202.8461 ZM 241.642 189.0625 L 245.9979 176.4902 L 250.3059 189.0625 L 241.642 189.0625 L 241.642 189.0625 Z" fill="#ffffff"/>
		<path d="M 276.8986 197.9711 L 276.8986 171.9375 L 282.116 171.9375 L 282.001 173.9375 L 286.9313 173.9375 L 286.9313 167.0625 L 260.0687 167.0625 L 260.0687 173.9375 L 264.999 173.9375 L 264.9318 171.9375 L 270.1014 171.9375 L 270.1014 197.9711 L 268.0625 197.9711 L 268.0625 202.8461 L 278.9375 202.8461 L 278.9375 197.9711 L 276.8986 197.9711 L 276.8986 197.9711 Z" fill="#ffffff"/>
		<path d="M 293.0775 197.9711 L 290.9714 197.9711 L 290.9714 202.8461 L 317.9375 202.8461 L 317.9375 195.9153 L 313.0625 195.9153 L 313.0625 197.9711 L 299.9225 197.9711 L 299.9225 186.9375 L 312.0456 186.9375 L 312.0456 182.0625 L 299.9225 182.0625 L 299.9225 171.9375 L 313.0625 171.9375 L 313.0625 173.9375 L 317.9375 173.9375 L 317.9375 167.0625 L 290.9714 167.0625 L 290.9714 171.9375 L 293.0775 171.9375 L 293.0775 197.9711 L 293.0775 197.9711 Z" fill="#ffffff"/>
		<path d="M 350.9225 195.4698 L 350.9225 171.9375 L 352.9375 171.9375 L 352.9375 167.0625 L 342.0625 167.0625 L 342.0625 171.9375 L 344.0775 171.9375 L 344.0775 193.6597 C 344.0775 193.6597 344.1254 198.0625 337.3727 198.0625 C 331.9225 198.0625 331.9225 193.6597 331.9225 193.6597 L 331.9225 171.9375 L 333.9375 171.9375 L 333.9375 167.0625 L 323.0625 167.0625 L 323.0625 171.9375 L 325.0775 171.9375 L 325.0775 195.4208 C 325.0775 200.7475 330.6301 202.9375 337.612 202.9375 C 345.1306 202.9375 350.9225 200.7888 350.9225 195.4698 L 350.9225 195.4698 Z" fill="#ffffff"/>
		<path d="M 359.0775 197.9711 L 357.0625 197.9711 L 357.0625 202.8461 L 367.9375 202.8461 L 367.9375 197.9711 L 365.9225 197.9711 L 365.9225 188.9375 L 371.0743 188.9375 L 377.4604 200.7699 C 379.2315 203.6139 383.5874 203.7579 386.4116 202.8461 L 386.4116 197.9711 C 381.0983 197.3409 381.6249 192.1938 378.1306 187.8543 C 378.1306 187.8543 383.9225 186.9967 383.9225 177.9054 C 383.9225 166.9665 374.7757 167.0625 371.2744 167.0625 L 357.0625 167.0625 L 357.0625 171.9375 L 359.0775 171.9375 L 359.0775 197.9711 L 359.0775 197.9711 ZM 371.2744 184.0625 L 365.9225 184.0625 L 365.9225 171.9375 L 371.2744 171.9375 C 371.2744 171.9375 377.0775 171.5313 377.0775 178.0009 C 377.0775 184.4691 371.2744 184.0148 371.2744 184.0625 L 371.2744 184.0625 Z" fill="#ffffff"/>
		<path d="M 145.0775 242.9711 L 143.0625 242.9711 L 143.0625 247.8461 L 153.9375 247.8461 L 153.9375 242.9711 L 151.9225 242.9711 L 151.9225 234.9375 C 151.9225 234.9375 156.0869 234.9375 157.1878 234.9375 C 173.8933 234.9375 173.7976 212.0625 157.2357 212.0625 L 143.0625 212.0625 L 143.0625 216.9375 L 145.0775 216.9375 L 145.0775 242.9711 L 145.0775 242.9711 ZM 156.1826 216.9375 C 156.3077 216.9375 162.9375 216.9375 162.9375 223.5236 C 162.9375 230.0625 156.3077 230.0625 156.3077 230.0625 L 152.0625 230.0625 L 152.0625 216.9375 L 156.3077 216.9375 L 156.1826 216.9375 L 156.1826 216.9375 Z" fill="#ffffff"/>
		<path d="M 201.512 247.8461 L 201.512 242.9711 L 199.4058 242.9711 L 188.1571 212.0625 L 181.743 212.0625 L 170.5421 242.9711 L 168.436 242.9711 L 168.436 247.8461 L 175.7118 247.8461 L 178.871 238.9375 L 191.1249 238.9375 L 194.1884 247.8461 L 201.512 247.8461 L 201.512 247.8461 ZM 180.642 234.0625 L 184.9979 221.4902 L 189.3059 234.0625 L 180.642 234.0625 L 180.642 234.0625 Z" fill="#ffffff"/>
		<path d="M 222.6962 248 L 233.9375 248 L 233.9375 241.1376 L 229.0625 241.1376 L 229.0625 242.9711 C 229.0625 242.9711 224.9938 242.9711 222.6962 242.9711 C 215.4683 242.9711 210.9688 235.7133 210.9688 229.2725 C 210.9688 222.976 214.4631 217.9273 221.2123 217.0635 C 223.5099 216.7276 226.0947 216.8236 229.0625 217.3515 L 229.0625 218.9351 L 233.9375 218.9351 L 233.9375 213.5124 C 230 211.8807 225.4246 211.0649 220.8773 211.0649 C 214.4631 211.0649 208.7191 213.9922 205.8471 219.9959 C 203.6931 224.7544 203.4059 232.0122 205.0812 236.8668 C 207.6181 244.461 214.511 247.8461 222.6962 247.8461 L 222.6962 248 L 222.6962 248 Z" fill="#ffffff"/>
		<path d="M 271.512 247.8461 L 271.512 242.9711 L 269.4058 242.9711 L 258.1571 212.0625 L 251.743 212.0625 L 240.5421 242.9711 L 238.436 242.9711 L 238.436 247.8461 L 245.7118 247.8461 L 248.871 238.9375 L 261.1249 238.9375 L 264.1884 247.8461 L 271.512 247.8461 L 271.512 247.8461 ZM 250.642 234.0625 L 254.9979 221.4902 L 259.3059 234.0625 L 250.642 234.0625 L 250.642 234.0625 Z" fill="#ffffff"/>
		<path d="M 290.9022 236.9375 L 290.9022 233.0625 L 274.9147 233.0625 L 274.9147 236.9375 L 290.9022 236.9375 L 290.9022 236.9375 Z" fill="#ffffff"/>
		<path d="M 297.0775 242.9711 L 294.9714 242.9711 L 294.9714 247.8461 L 321.9375 247.8461 L 321.9375 240.9153 L 317.0625 240.9153 L 317.0625 242.9711 L 303.9225 242.9711 L 303.9225 231.9375 L 316.0456 231.9375 L 316.0456 227.0625 L 303.9225 227.0625 L 303.9225 216.9375 L 317.0625 216.9375 L 317.0625 218.9375 L 321.9375 218.9375 L 321.9375 212.0625 L 294.9714 212.0625 L 294.9714 216.9375 L 297.0775 216.9375 L 297.0775 242.9711 L 297.0775 242.9711 Z" fill="#ffffff"/>
		<path d="M 354.9479 224.2284 L 354.9479 219.1897 L 352.9375 219.1897 C 352.9375 213.8357 347.3941 212.0625 341.2285 212.0625 C 334.5104 212.0625 329.0625 214.1983 329.0625 220.9997 C 329.0625 227.6039 333.5534 229.952 338.7287 231.7621 C 342.6655 233.4253 347.0775 234.6972 347.0775 238.3173 C 347.0775 241.2525 344.2515 243.0625 340.4849 243.0625 C 337.313 243.0625 333.8438 241.5949 333.8438 237.4857 L 333.8438 233.621 L 326.1563 233.621 L 326.1563 238.6597 L 329.0625 238.6597 C 329.0625 245.5822 335.2103 247.9375 340.8488 247.9375 C 347.6519 247.9375 353.9225 245.4169 353.9225 238.3662 C 353.9225 231.5664 348.2742 228.8758 343.1223 226.919 C 339.6193 225.4514 335.9225 224.3752 335.9225 220.9997 C 335.9225 218.2113 338.2205 216.9375 341.2679 216.9375 C 343.9156 216.9375 347.0625 217.771 347.0625 221.3422 L 347.0625 224.2284 L 354.9479 224.2284 L 354.9479 224.2284 Z" fill="#ffffff"/>
		<path d="M 375.8986 242.9711 L 375.8986 216.9375 L 381.116 216.9375 L 381.001 218.9375 L 385.9313 218.9375 L 385.9313 212.0625 L 359.0687 212.0625 L 359.0687 218.9375 L 363.999 218.9375 L 363.9318 216.9375 L 369.1014 216.9375 L 369.1014 242.9711 L 367.0625 242.9711 L 367.0625 247.8461 L 377.9375 247.8461 L 377.9375 242.9711 L 375.8986 242.9711 L 375.8986 242.9711 Z" fill="#ffffff"/>
		<path id="Ellipse%202" d="M 82.6152 151.4811 C 84.562 150.4395 86.9855 151.1711 88.0284 153.1157 C 89.0714 155.0601 88.3387 157.481 86.392 158.5228 C 84.4453 159.5644 82.0218 158.8326 80.9788 156.8882 C 79.9359 154.9437 80.6685 152.5229 82.6152 151.4811 Z" fill="#fffb00"/>
		<path d="M 166.0625 278.9375 L 167.9375 278.9375 L 167.9375 261.0625 L 166.0625 261.0625 L 166.0625 278.9375 L 166.0625 278.9375 Z" fill="#fffb00"/>
		<path d="M 180.5422 269.4991 C 179.5331 268.5615 178.0557 268.0706 176.4991 268.0706 C 175.2064 268.0706 173.9664 268.5839 172.9375 269.2535 L 172.9375 268.0625 L 171.0625 268.0625 L 171.0625 278.9375 L 172.9375 278.9375 L 172.9375 273.0968 C 172.9375 271.3994 174.5468 269.9456 176.4991 269.9456 C 178.4778 269.9456 180.0625 271.3994 180.0625 273.1606 L 180.0625 278.9375 L 181.9375 278.9375 L 181.9375 273.1606 C 181.9375 271.7516 181.4362 270.4601 180.5422 269.4991 L 180.5422 269.4991 Z" fill="#fffb00"/>
		<path d="M 193.5422 269.4991 C 192.5331 268.5615 191.0557 268.0706 189.4991 268.0706 C 188.2064 268.0706 186.9664 268.5839 185.9375 269.2535 L 185.9375 268.0625 L 184.0625 268.0625 L 184.0625 278.9375 L 185.9375 278.9375 L 185.9375 273.0968 C 185.9375 271.3994 187.5468 269.9456 189.4991 269.9456 C 191.4778 269.9456 193.0625 271.3994 193.0625 273.1606 L 193.0625 278.9375 L 194.9375 278.9375 L 194.9375 273.1606 C 194.9375 271.7516 194.4362 270.4601 193.5422 269.4991 L 193.5422 269.4991 Z" fill="#fffb00"/>
		<path d="M 206.3896 269.5989 C 205.3683 268.6177 203.9804 268.0946 202.4999 268.0946 C 201.0194 268.0946 199.6315 268.6177 198.5888 269.5989 C 197.6076 270.6378 197.0625 272.0175 197.0625 273.4892 C 197.0625 274.9608 197.6076 276.3405 198.5888 277.3791 C 199.6315 278.3603 201.0194 278.9054 202.4999 278.9054 C 203.9804 278.9054 205.3683 278.3603 206.3896 277.3791 C 207.3926 276.3405 207.9375 274.9608 207.9375 273.4892 C 207.9375 272.0175 207.3926 270.6378 206.3896 269.5989 L 206.3896 269.5989 ZM 202.4999 277.0304 C 200.5336 277.0304 198.9375 275.4437 198.9375 273.4892 C 198.9375 271.5346 200.5336 269.9696 202.4999 269.9696 C 204.4661 269.9696 206.0625 271.5346 206.0625 273.4892 C 206.0625 275.4437 204.4661 277.0304 202.4999 277.0304 L 202.4999 277.0304 Z" fill="#fffb00"/>
		<path d="M 217.4328 268.0625 L 214.0965 276.2309 L 210.7362 268.0625 L 208.504 268.0625 L 212.9684 278.9375 L 215.2006 278.9375 L 219.665 268.0625 L 217.4328 268.0625 L 217.4328 268.0625 Z" fill="#fffb00"/>
		<path d="M 231.113 272.1138 C 230.9209 271.1832 230.4169 270.3413 229.7448 269.6398 C 228.7608 268.6085 227.4406 268.0226 226.0005 268.0226 C 224.5844 268.0226 223.2403 268.6085 222.2802 269.6398 C 221.6081 270.3413 221.1281 271.1832 220.9121 272.1138 C 220.8161 272.5439 220.7681 272.976 220.7681 273.408 C 220.7681 273.576 220.7681 273.7441 220.7921 273.9127 C 220.8881 275.2219 221.4161 276.4121 222.2802 277.3368 C 223.2403 278.3915 224.5604 278.9774 226.0005 278.9774 C 227.0326 278.9305 228.0647 278.6727 228.9048 278.1805 C 229.4568 277.8524 229.9369 277.454 230.3689 276.9834 L 228.6407 275.9598 C 227.9447 276.6501 226.9366 277.0548 225.9525 277.1024 C 224.3684 277.0786 223.0003 275.7218 222.7602 273.9127 L 222.7602 273.8641 L 231.233 273.8641 C 231.257 273.6481 231.281 273.096 231.113 272.1138 L 231.113 272.1138 ZM 222.9283 272.1359 L 222.9523 272.0916 C 223.4563 270.7844 224.6804 269.8976 226.0005 269.8976 C 227.3446 269.8976 228.5687 270.7844 229.0488 272.0916 L 229.0728 272.1359 L 222.9283 272.1359 L 222.9283 272.1359 Z" fill="#fffb00"/>
		<path d="M 235.9375 268 L 234.0625 268 L 234.0625 278.9375 L 235.9375 278.9375 L 235.9375 273.1183 C 235.9375 271.2819 237.5217 269.8242 239.4418 269.8242 L 239.9459 268.0625 C 238.6738 268.0625 236.6336 268.6426 235.9375 269.3862 L 235.9375 268 L 235.9375 268 Z" fill="#fffb00"/>
		<path d="M 239.7522 280.9375 C 239.7522 280.9375 241.4083 279.2368 241.4803 279.1424 C 241.6963 278.9298 241.9843 278.5046 241.7203 277.8196 C 241.6003 277.5125 241.3363 277.2763 241.0243 277.1582 C 240.8802 277.0874 240.7122 277.0625 240.5682 277.0625 C 240.0402 277.0625 239.5841 277.3708 239.3921 277.8432 C 239.1521 278.4337 239.4161 279.0951 239.9682 279.3786 L 238.48 280.9375 L 239.7522 280.9375 L 239.7522 280.9375 Z" fill="#fffb00"/>
		<path d="M 250.0625 278.8814 L 260.3622 278.8814 L 260.3622 277.0064 L 251.9375 277.0064 L 251.9375 270.0056 L 259.4742 270.0056 L 259.4742 268.1306 L 251.9375 268.1306 L 251.9375 262.9696 L 260.5782 262.9696 L 260.5782 261.0946 L 250.0625 261.0946 L 250.0625 278.8814 L 250.0625 278.8814 Z" fill="#fffb00"/>
		<path d="M 272.5422 269.4991 C 271.5331 268.5615 270.0557 268.0706 268.4991 268.0706 C 267.2064 268.0706 265.9664 268.5839 264.9375 269.2535 L 264.9375 268.0625 L 263.0625 268.0625 L 263.0625 278.9375 L 264.9375 278.9375 L 264.9375 273.0968 C 264.9375 271.3994 266.5468 269.9456 268.4991 269.9456 C 270.4778 269.9456 272.0625 271.3994 272.0625 273.1606 L 272.0625 278.9375 L 273.9375 278.9375 L 273.9375 273.1606 C 273.9375 271.7516 273.4362 270.4601 272.5422 269.4991 L 272.5422 269.4991 Z" fill="#fffb00"/>
		<path d="M 280.5217 278.9534 L 282.9459 278.9534 L 282.4178 277.0784 L 280.5696 277.0784 C 279.7056 277.0784 278.9375 276.2266 278.9375 275.3261 L 278.9375 269.9216 L 282.3218 269.9216 L 282.3218 268.0466 L 278.9375 268.0466 L 278.9375 264.0625 L 277.0625 264.0625 L 277.0625 268.0466 L 275.4304 268.0466 L 275.4304 269.9216 L 277.0625 269.9216 L 277.0625 275.3748 C 277.0625 277.421 278.5452 278.9534 280.5217 278.9534 L 280.5217 278.9534 Z" fill="#fffb00"/>
		<path d="M 287.9375 268 L 286.0625 268 L 286.0625 278.9375 L 287.9375 278.9375 L 287.9375 273.1183 C 287.9375 271.2819 289.5217 269.8242 291.4418 269.8242 L 291.9459 268.0625 C 290.6738 268.0625 288.6336 268.6426 287.9375 269.3862 L 287.9375 268 L 287.9375 268 Z" fill="#fffb00"/>
		<path d="M 302.113 272.1138 C 301.921 271.1832 301.4169 270.3413 300.7448 269.6398 C 299.7607 268.6085 298.4406 268.0226 297.0005 268.0226 C 295.5844 268.0226 294.2403 268.6085 293.2802 269.6398 C 292.6082 270.3413 292.1281 271.1832 291.9121 272.1138 C 291.8161 272.5439 291.7681 272.976 291.7681 273.408 C 291.7681 273.576 291.7681 273.7441 291.7921 273.9127 C 291.8881 275.2219 292.4161 276.4121 293.2802 277.3368 C 294.2403 278.3915 295.5604 278.9774 297.0005 278.9774 C 298.0326 278.9305 299.0647 278.6727 299.9048 278.1805 C 300.4568 277.8524 300.9369 277.454 301.3689 276.9834 L 299.6407 275.9598 C 298.9447 276.6501 297.9366 277.0548 296.9525 277.1024 C 295.3684 277.0786 294.0002 275.7218 293.7603 273.9127 L 293.7603 273.8641 L 302.233 273.8641 C 302.257 273.6481 302.281 273.096 302.113 272.1138 L 302.113 272.1138 ZM 293.9283 272.1359 L 293.9523 272.0916 C 294.4563 270.7844 295.6804 269.8976 297.0005 269.8976 C 298.3446 269.8976 299.5687 270.7844 300.0488 272.0916 L 300.0728 272.1359 L 293.9283 272.1359 L 293.9283 272.1359 Z" fill="#fffb00"/>
		<path d="M 314.3896 269.6107 C 313.2719 268.6062 311.6889 268.0706 310.0004 268.0706 C 308.4966 268.0706 307.072 268.6732 305.9375 269.4768 L 305.9375 268.0625 L 304.0625 268.0625 L 304.0625 284.9375 L 305.9375 284.9375 L 305.9375 277.523 C 307.072 278.3267 308.4966 278.9294 310.0004 278.9294 C 311.6889 278.9294 313.2719 278.3937 314.3896 277.3891 C 315.3926 276.3283 315.9375 274.923 315.9375 273.424 C 315.9375 271.9249 315.3926 270.5196 314.3896 269.4422 L 314.3896 269.6107 L 314.3896 269.6107 ZM 310.0004 277.0544 C 307.7579 277.0544 305.9375 275.4149 305.9375 273.424 C 305.9375 271.5502 307.7579 269.9456 310.0004 269.9456 C 312.2429 269.9456 314.0625 271.5502 314.0625 273.4996 C 314.0625 275.449 312.2429 277.0544 310.0004 277.0544 L 310.0004 277.0544 Z" fill="#fffb00"/>
		<path d="M 319.9375 268 L 318.0625 268 L 318.0625 278.9375 L 319.9375 278.9375 L 319.9375 273.1183 C 319.9375 271.2819 321.5217 269.8242 323.4418 269.8242 L 323.9459 268.0625 C 322.6738 268.0625 320.6336 268.6426 319.9375 269.3862 L 319.9375 268 L 319.9375 268 Z" fill="#fffb00"/>
		<path d="M 334.113 272.1138 C 333.921 271.1832 333.4169 270.3413 332.7448 269.6398 C 331.7607 268.6085 330.4406 268.0226 329.0005 268.0226 C 327.5844 268.0226 326.2403 268.6085 325.2802 269.6398 C 324.6082 270.3413 324.1281 271.1832 323.9121 272.1138 C 323.8161 272.5439 323.7681 272.976 323.7681 273.408 C 323.7681 273.576 323.7681 273.7441 323.7921 273.9127 C 323.8881 275.2219 324.4161 276.4121 325.2802 277.3368 C 326.2403 278.3915 327.5604 278.9774 329.0005 278.9774 C 330.0326 278.9305 331.0647 278.6727 331.9048 278.1805 C 332.4568 277.8524 332.9369 277.454 333.3689 276.9834 L 331.6407 275.9598 C 330.9447 276.6501 329.9366 277.0548 328.9525 277.1024 C 327.3684 277.0786 326.0002 275.7218 325.7603 273.9127 L 325.7603 273.8641 L 334.233 273.8641 C 334.257 273.6481 334.281 273.096 334.113 272.1138 L 334.113 272.1138 ZM 325.9283 272.1359 L 325.9523 272.0916 C 326.4563 270.7844 327.6804 269.8976 329.0005 269.8976 C 330.3446 269.8976 331.5687 270.7844 332.0488 272.0916 L 332.0728 272.1359 L 325.9283 272.1359 L 325.9283 272.1359 Z" fill="#fffb00"/>
		<path d="M 345.5422 269.4991 C 344.5331 268.5615 343.0557 268.0706 341.4991 268.0706 C 340.2064 268.0706 338.9664 268.5839 337.9375 269.2535 L 337.9375 268.0625 L 336.0625 268.0625 L 336.0625 278.9375 L 337.9375 278.9375 L 337.9375 273.0968 C 337.9375 271.3994 339.5468 269.9456 341.4991 269.9456 C 343.4778 269.9456 345.0625 271.3994 345.0625 273.1606 L 345.0625 278.9375 L 346.9375 278.9375 L 346.9375 273.1606 C 346.9375 271.7516 346.4362 270.4601 345.5422 269.4991 L 345.5422 269.4991 Z" fill="#fffb00"/>
		<path d="M 358.0625 269.4768 C 357.0676 268.6732 355.8184 268.0706 354.4999 268.0706 C 353.0194 268.0706 351.6315 268.6062 350.5888 269.6107 C 349.6076 270.6558 349.0625 272.0319 349.0625 273.4996 C 349.0625 274.9674 349.6076 276.3434 350.5888 277.3891 C 351.6315 278.3937 353.0194 278.9294 354.4999 278.9294 C 355.8184 278.9294 357.0676 278.3267 358.0625 277.523 L 358.0625 278.9375 L 359.9375 278.9375 L 359.9375 261.0625 L 358.0625 261.0625 L 358.0625 269.4768 L 358.0625 269.4768 ZM 354.4999 277.0544 C 352.5336 277.0544 350.9375 275.449 350.9375 273.4996 C 350.9375 271.5502 352.5336 269.9456 354.4999 269.9456 C 356.4661 269.9456 358.0625 271.5502 358.0625 273.4996 C 358.0625 275.449 356.4661 277.0544 354.4999 277.0544 L 354.4999 277.0544 Z" fill="#fffb00"/>
		<path d="M 365.9375 268 L 364.0625 268 L 364.0625 278.9375 L 365.9375 278.9375 L 365.9375 273.1183 C 365.9375 271.2819 367.5217 269.8242 369.4418 269.8242 L 369.9459 268.0625 C 368.6738 268.0625 366.6336 268.6426 365.9375 269.3862 L 365.9375 268 L 365.9375 268 Z" fill="#fffb00"/>
		<path d="M 380.113 272.1138 C 379.921 271.1832 379.4169 270.3413 378.7448 269.6398 C 377.7607 268.6085 376.4406 268.0226 375.0005 268.0226 C 373.5844 268.0226 372.2403 268.6085 371.2802 269.6398 C 370.6082 270.3413 370.1281 271.1832 369.9121 272.1138 C 369.8161 272.5439 369.7681 272.976 369.7681 273.408 C 369.7681 273.576 369.7681 273.7441 369.7921 273.9127 C 369.8881 275.2219 370.4161 276.4121 371.2802 277.3368 C 372.2403 278.3915 373.5604 278.9774 375.0005 278.9774 C 376.0326 278.9305 377.0647 278.6727 377.9048 278.1805 C 378.4568 277.8524 378.9369 277.454 379.3689 276.9834 L 377.6407 275.9598 C 376.9447 276.6501 375.9366 277.0548 374.9525 277.1024 C 373.3684 277.0786 372.0002 275.7218 371.7603 273.9127 L 371.7603 273.8641 L 380.233 273.8641 C 380.257 273.6481 380.281 273.096 380.113 272.1138 L 380.113 272.1138 ZM 371.9283 272.1359 L 371.9523 272.0916 C 372.4563 270.7844 373.6804 269.8976 375.0005 269.8976 C 376.3446 269.8976 377.5687 270.7844 378.0488 272.0916 L 378.0728 272.1359 L 371.9283 272.1359 L 371.9283 272.1359 Z" fill="#fffb00"/>
		<path opacity="0.502" d="M 156.75 273.75 C 157.5192 274.5911 124.3578 280.4248 124.25 279.5 C 124.0982 278.198 135.1036 274.6502 134.6667 274.6667 C 132.1829 274.76 101.5552 269.6955 87.1028 265.1487 C 77.228 262.0484 -12.5 247 1.5 214 C 23.8333 196.6667 56.1816 195.7155 63 194.5 C 71.2899 193.0222 9.2545 202.7948 7.5 218 C 3.6473 251.3898 134.4902 271.2982 134 270.6667 C 130.9875 266.7854 125.9786 263.8263 125.3333 263 C 124.3369 261.7237 154.6199 271.4212 156.75 273.75 Z" fill="#ffffff"/>
	</g>
</svg>